<svg xmlns="http://www.w3.org/2000/svg" xmlns:xlink="http://www.w3.org/1999/xlink" viewBox="0 0 473.37 1374.91"><defs><style>.cls-1,.cls-2{fill:#fff;}.cls-2{stroke:#000;stroke-miterlimit:10;}.cls-3{fill:url(#Gradiente_sem_nome_42);}</style><linearGradient id="Gradiente_sem_nome_42" x1="193.46" y1="1050.18" x2="328.18" y2="1339.08" gradientUnits="userSpaceOnUse"><stop offset="0" stop-color="#ed1c24"/><stop offset="0.12" stop-color="#c4171e"/><stop offset="0.22" stop-color="#a51319"/><stop offset="0.25" stop-color="#810f14"/><stop offset="0.28" stop-color="#5f0b0e"/><stop offset="0.32" stop-color="#41080a"/><stop offset="0.36" stop-color="#290506"/><stop offset="0.41" stop-color="#170303"/><stop offset="0.46" stop-color="#0a0101"/><stop offset="0.53" stop-color="#020000"/><stop offset="0.68"/></linearGradient></defs><title>Ativo 1</title><g id="Camada_2" data-name="Camada 2"><g id="Camada_1-2" data-name="Camada 1"><rect y="450.52" width="473.37" height="473.37"/><rect class="cls-1" x="44.83" y="494.48" width="384.16" height="384.16" rx="80.37" ry="80.37"/><rect class="cls-2" x="45.91" y="990.25" width="384.16" height="384.16" rx="80.37" ry="80.37"/><ellipse cx="275.6" cy="1224.74" rx="29.72" ry="28.58"/><path class="cls-3" d="M320.83,1165.87c-23.24-16.59-53-11.95-61.08-10.27-27.34,5.59-46.34,21.07-55.41,46.69-6.48,18.31-4.13,36.42,4.06,53.86,9,19.25,24,30.93,39.34,43,4,3.16,23,13.63,25.38,15.28-9.8-.24-74.34-10.43-111.86-48.87-31.19-31.94-34.79-69.27-36.26-81.16-2-16.33-.66-32.35,5.29-47.9,6.44-16.86,17.43-30.66,31.33-42.45,7-6,14.42-11.48,23.21-15,26-10.43,60.41-1.14,71.23,29.79a106.37,106.37,0,0,1,5.71,30.06c.11,2.52,1.19,3.57,3.85,3.6,7.53.13,15.09.3,22.61.34,8,.07,16,0,23.91,0a.7.7,0,0,0,.49-1.25,5.29,5.29,0,0,1-.66-.57q-13.81-13.23-27.62-26.52c-2.73-2.63-2.73-2.79-.8-5.86,14.63-23.43,67-73.6,65.73-75.62s-24.67-2.37-37.66-2.27c-17.71.14-35.25,3.53-52.82,5.79a365,365,0,0,0-56.63,11.85c-20.13,6-38.61,14.74-54.64,28-18.83,15.62-32.59,34.54-40.22,57.29-7.56,22.55-7.46,45.48-2.24,68.47,8.09,35.71,25.27,59.68,29.75,65.37,29,36.79,67.52,49.35,100.7,60.15a308.11,308.11,0,0,0,56.28,6.16c7.52.13,14.77,0,21.6-.4l13-.91c8-.77,15.33-1.78,22-2.89,0,0,.88-71.53.88-99.3C349.25,1208,343.23,1181.82,320.83,1165.87Zm5.67,107.68H275.85q-21.42,0-36.3-14.17t-14.84-35a45.5,45.5,0,0,1,14.84-34.4q14.86-14,36.3-14t36,13.9q14.59,13.94,14.63,34.54Z"/><circle cx="225.31" cy="1118.09" r="12.69"/><ellipse cx="266.63" cy="729.62" rx="29.72" ry="28.58"/><path d="M311.86,670.75c-23.24-16.59-53-11.95-61.08-10.27-27.34,5.59-46.34,21.07-55.41,46.69-6.48,18.31-4.13,36.42,4.06,53.86,9,19.25,24,30.93,39.34,43,4,3.16,23,13.63,25.38,15.28-9.8-.24-74.34-10.43-111.86-48.87-31.19-31.94-34.79-69.27-36.26-81.16-2-16.33-.66-32.35,5.29-47.9,6.44-16.86,17.43-30.66,31.33-42.45,7-6,14.42-11.48,23.21-15,26-10.43,60.41-1.14,71.23,29.79a106.37,106.37,0,0,1,5.71,30.06c.11,2.52,1.19,3.57,3.85,3.6,7.53.13,15.09.3,22.61.34,8,.07,16,0,23.91,0a.7.7,0,0,0,.49-1.25,5.29,5.29,0,0,1-.66-.57q-13.81-13.23-27.62-26.52c-2.73-2.63-2.73-2.79-.8-5.86,14.63-23.43,67-73.6,65.73-75.62s-24.67-2.37-37.66-2.27c-17.71.14-35.25,3.53-52.82,5.79a365,365,0,0,0-56.63,11.85c-20.13,6-38.61,14.74-54.64,28C119.71,596.93,106,615.85,98.32,638.6c-7.56,22.55-7.46,45.48-2.24,68.47,8.09,35.71,25.27,59.68,29.75,65.37,29,36.79,67.52,49.35,100.7,60.15a308.11,308.11,0,0,0,56.28,6.16c7.52.13,14.77,0,21.6-.4l13-.91c8-.77,15.33-1.78,22-2.89,0,0,.88-71.53.88-99.3C340.28,712.89,334.26,686.7,311.86,670.75Zm5.67,107.68H266.89q-21.42,0-36.3-14.17t-14.84-35a45.5,45.5,0,0,1,14.84-34.4q14.86-14,36.3-14t36,13.9q14.59,13.94,14.63,34.54Z"/><circle cx="216.34" cy="622.96" r="12.69"/><rect x="44.91" width="384.16" height="384.16" rx="80.37" ry="80.37"/><ellipse class="cls-1" cx="279.28" cy="234.49" rx="29.72" ry="28.58"/><path class="cls-1" d="M324.52,175.62c-23.24-16.59-53-11.95-61.08-10.27C236.1,170.95,217.1,186.43,208,212c-6.48,18.31-4.13,36.42,4.06,53.86,9,19.25,24,30.93,39.34,43,4,3.16,23,13.63,25.38,15.28-9.8-.24-74.34-10.43-111.86-48.87-31.19-31.94-34.79-69.27-36.26-81.16-2-16.33-.66-32.35,5.29-47.9,6.44-16.86,17.43-30.66,31.33-42.45,7-6,14.42-11.48,23.21-15,26-10.43,60.41-1.14,71.23,29.79a106.37,106.37,0,0,1,5.71,30.06c.11,2.52,1.19,3.57,3.85,3.6,7.53.13,15.09.3,22.61.34,8,.07,16,0,23.91,0a.7.7,0,0,0,.49-1.25,5.29,5.29,0,0,1-.66-.57Q301.82,137.55,288,124.26c-2.73-2.63-2.73-2.79-.8-5.86,14.63-23.43,67-73.6,65.73-75.62s-24.67-2.37-37.66-2.27C297.57,40.65,280,44,262.46,46.3a365,365,0,0,0-56.63,11.85c-20.13,6-38.61,14.74-54.64,28-18.83,15.62-32.59,34.54-40.22,57.29-7.56,22.55-7.46,45.48-2.24,68.47,8.09,35.71,25.27,59.68,29.75,65.37,29,36.79,67.52,49.35,100.7,60.15a308.11,308.11,0,0,0,56.28,6.16c7.52.13,14.77,0,21.6-.4l13-.91c8-.77,15.33-1.78,22-2.89,0,0,.88-71.53.88-99.3C352.94,217.77,346.92,191.58,324.52,175.62Zm5.67,107.68H279.54q-21.42,0-36.3-14.17t-14.84-35a45.5,45.5,0,0,1,14.84-34.4q14.86-14,36.3-14t36,13.9q14.59,13.94,14.63,34.54Z"/><circle class="cls-1" cx="229" cy="127.84" r="12.69"/></g></g></svg>